# Blender v2.90.1 OBJ File: ''
# www.blender.org
mtllib SkySphere.mtl
o SkySphere_Sphere
v 0.000000 0.707107 -0.707107
v 0.000000 0.382683 -0.923880
v 0.000000 -0.382684 -0.923880
v 0.000000 -0.923880 -0.382683
v 0.146447 0.923880 -0.353553
v 0.270598 0.707107 -0.653281
v 0.353553 0.382683 -0.853553
v 0.382683 -0.000000 -0.923880
v 0.353553 -0.382684 -0.853553
v 0.270598 -0.707107 -0.653281
v 0.146447 -0.923880 -0.353553
v 0.270598 0.923880 -0.270598
v 0.500000 0.707107 -0.500000
v 0.653281 0.382683 -0.653281
v 0.707107 -0.000000 -0.707107
v 0.653281 -0.382684 -0.653281
v 0.500000 -0.707107 -0.500000
v 0.270598 -0.923880 -0.270598
v 0.353553 0.923880 -0.146447
v 0.653281 0.707107 -0.270598
v 0.853553 0.382683 -0.353553
v 0.923879 -0.000000 -0.382683
v 0.853553 -0.382684 -0.353553
v 0.653281 -0.707107 -0.270598
v 0.353553 -0.923880 -0.146447
v 0.382683 0.923880 -0.000000
v 0.707107 0.707107 -0.000000
v 0.923879 0.382683 -0.000000
v 1.000000 -0.000000 -0.000000
v 0.923879 -0.382684 -0.000000
v 0.707107 -0.707107 -0.000000
v 0.382683 -0.923880 -0.000000
v 0.353553 0.923880 0.146446
v 0.653281 0.707107 0.270598
v 0.853553 0.382683 0.353553
v 0.923879 -0.000000 0.382683
v 0.853553 -0.382684 0.353553
v 0.653281 -0.707107 0.270598
v 0.353553 -0.923880 0.146446
v 0.270598 0.923880 0.270598
v 0.500000 0.707107 0.500000
v 0.653281 0.382683 0.653281
v 0.707106 -0.000000 0.707107
v 0.653281 -0.382684 0.653281
v 0.500000 -0.707107 0.500000
v 0.270598 -0.923880 0.270598
v 0.146446 0.923880 0.353553
v 0.270598 0.707107 0.653281
v 0.353553 0.382683 0.853553
v 0.382683 -0.000000 0.923879
v 0.353553 -0.382684 0.853553
v 0.270598 -0.707107 0.653281
v 0.146446 -0.923880 0.353553
v -0.000000 0.923880 0.382683
v -0.000000 0.707107 0.707106
v -0.000000 0.382683 0.923879
v -0.000000 -0.000000 1.000000
v -0.000000 -0.382684 0.923879
v -0.000000 -0.707107 0.707106
v -0.000000 -0.923880 0.382683
v -0.146447 0.923880 0.353553
v -0.270598 0.707107 0.653281
v -0.353554 0.382683 0.853553
v -0.382684 -0.000000 0.923879
v -0.353554 -0.382684 0.853553
v -0.270598 -0.707107 0.653281
v -0.146447 -0.923880 0.353553
v -0.270598 0.923880 0.270598
v -0.500000 0.707107 0.499999
v -0.653282 0.382683 0.653281
v -0.707107 -0.000000 0.707106
v -0.653282 -0.382684 0.653281
v -0.500000 -0.707107 0.499999
v -0.270598 -0.923880 0.270598
v -0.353553 0.923880 0.146446
v -0.653281 0.707107 0.270597
v -0.853553 0.382683 0.353553
v -0.923879 -0.000000 0.382683
v -0.853553 -0.382684 0.353553
v -0.653281 -0.707107 0.270597
v -0.353553 -0.923880 0.146446
v -0.382683 0.923880 -0.000000
v -0.707106 0.707107 -0.000000
v -0.923879 0.382683 -0.000001
v -1.000000 -0.000000 -0.000001
v -0.923879 -0.382684 -0.000001
v -0.707106 -0.707107 -0.000000
v -0.382683 -0.923880 -0.000000
v -0.353553 0.923880 -0.146447
v -0.653281 0.707107 -0.270598
v -0.853553 0.382683 -0.353554
v -0.923879 -0.000000 -0.382684
v -0.853553 -0.382684 -0.353554
v -0.653281 -0.707107 -0.270598
v -0.353553 -0.923880 -0.146447
v -0.270598 0.923880 -0.270598
v -0.499999 0.707107 -0.500000
v -0.653281 0.382683 -0.653282
v -0.707106 -0.000000 -0.707107
v -0.653281 -0.382684 -0.653282
v -0.499999 -0.707107 -0.500000
v -0.270598 -0.923880 -0.270598
v -0.146446 0.923880 -0.353553
v -0.270598 0.707107 -0.653281
v -0.353553 0.382683 -0.853553
v -0.382683 -0.000000 -0.923880
v -0.353553 -0.382684 -0.853553
v -0.270598 -0.707107 -0.653281
v -0.146446 -0.923880 -0.353553
v -0.000000 1.000000 -0.000000
v 0.000000 0.923880 -0.382683
v 0.000001 -0.000000 -1.000000
v 0.000000 -0.707107 -0.707106
v 0.000000 -1.000000 -0.000000
vt 0.750000 0.625000
vt 0.687500 0.625000
vt 0.687500 0.750000
vt 0.750000 0.750000
vt 0.750000 0.875000
vt 0.687500 0.875000
vt 0.718750 1.000000
vt 0.718750 0.000000
vt 0.687500 0.125000
vt 0.750000 0.125000
vt 0.750000 0.250000
vt 0.687500 0.250000
vt 0.687500 0.375000
vt 0.750000 0.375000
vt 0.750000 0.500000
vt 0.687500 0.500000
vt 0.625000 0.250000
vt 0.625000 0.375000
vt 0.625000 0.500000
vt 0.625000 0.625000
vt 0.625000 0.750000
vt 0.625000 0.875000
vt 0.625000 0.125000
vt 0.656250 1.000000
vt 0.656250 0.000000
vt 0.562500 0.125000
vt 0.562500 0.250000
vt 0.562500 0.375000
vt 0.562500 0.500000
vt 0.562500 0.625000
vt 0.562500 0.750000
vt 0.562500 0.875000
vt 0.593750 1.000000
vt 0.593750 0.000000
vt 0.500000 0.375000
vt 0.500000 0.500000
vt 0.500000 0.625000
vt 0.500000 0.750000
vt 0.500000 0.875000
vt 0.531250 1.000000
vt 0.531250 0.000000
vt 0.500000 0.125000
vt 0.500000 0.250000
vt 0.468750 0.000000
vt 0.437500 0.125000
vt 0.437500 0.250000
vt 0.437500 0.375000
vt 0.437500 0.500000
vt 0.437500 0.625000
vt 0.437500 0.750000
vt 0.437500 0.875000
vt 0.468750 1.000000
vt 0.375000 0.500000
vt 0.375000 0.625000
vt 0.375000 0.750000
vt 0.375000 0.875000
vt 0.375000 0.125000
vt 0.375000 0.250000
vt 0.375000 0.375000
vt 0.406250 1.000000
vt 0.406250 0.000000
vt 0.312500 0.125000
vt 0.312500 0.250000
vt 0.312500 0.375000
vt 0.312500 0.500000
vt 0.312500 0.625000
vt 0.312500 0.750000
vt 0.312500 0.875000
vt 0.343750 1.000000
vt 0.343750 0.000000
vt 0.250000 0.625000
vt 0.250000 0.750000
vt 0.250000 0.875000
vt 0.281250 1.000000
vt 0.281250 0.000000
vt 0.250000 0.125000
vt 0.250000 0.250000
vt 0.250000 0.375000
vt 0.250000 0.500000
vt 0.218750 0.000000
vt 0.187500 0.125000
vt 0.187500 0.250000
vt 0.187500 0.375000
vt 0.187500 0.500000
vt 0.187500 0.625000
vt 0.187500 0.750000
vt 0.187500 0.875000
vt 0.218750 1.000000
vt 0.125000 0.750000
vt 0.125000 0.875000
vt 0.125000 0.125000
vt 0.125000 0.250000
vt 0.125000 0.375000
vt 0.125000 0.500000
vt 0.125000 0.625000
vt 0.156250 1.000000
vt 0.156250 0.000000
vt 0.062500 0.125000
vt 0.062500 0.250000
vt 0.062500 0.375000
vt 0.062500 0.500000
vt 0.062500 0.625000
vt 0.062500 0.750000
vt 0.062500 0.875000
vt 0.093750 1.000000
vt 0.093750 0.000000
vt 0.000000 0.875000
vt 0.031250 1.000000
vt 0.031250 0.000000
vt 0.000000 0.125000
vt 0.000000 0.250000
vt 0.000000 0.375000
vt 0.000000 0.500000
vt 0.000000 0.625000
vt 0.000000 0.750000
vt 1.000000 0.250000
vt 0.937500 0.250000
vt 0.937500 0.375000
vt 1.000000 0.375000
vt 1.000000 0.500000
vt 0.937500 0.500000
vt 0.937500 0.625000
vt 1.000000 0.625000
vt 1.000000 0.750000
vt 0.937500 0.750000
vt 0.937500 0.875000
vt 1.000000 0.875000
vt 1.000000 0.125000
vt 0.937500 0.125000
vt 0.968750 1.000000
vt 0.968750 0.000000
vt 0.875000 0.125000
vt 0.875000 0.250000
vt 0.875000 0.375000
vt 0.875000 0.500000
vt 0.875000 0.625000
vt 0.875000 0.750000
vt 0.875000 0.875000
vt 0.906250 1.000000
vt 0.906250 0.000000
vt 0.812500 0.375000
vt 0.812500 0.500000
vt 0.812500 0.625000
vt 0.812500 0.750000
vt 0.812500 0.875000
vt 0.843750 1.000000
vt 0.843750 0.000000
vt 0.812500 0.125000
vt 0.812500 0.250000
vt 0.781250 0.000000
vt 0.781250 1.000000
vn 0.0000 -0.3743 0.9273
vn -0.3548 -0.3743 0.8567
vn -0.2751 -0.6952 0.6641
vn 0.0000 -0.6952 0.7188
vn 0.0000 -0.9152 0.4031
vn -0.1542 -0.9152 0.3724
vn 0.0000 -1.0000 0.0000
vn 0.0000 1.0000 0.0000
vn -0.1542 0.9152 0.3724
vn 0.0000 0.9152 0.4031
vn 0.0000 0.6952 0.7188
vn -0.2751 0.6952 0.6641
vn -0.3548 0.3743 0.8567
vn 0.0000 0.3743 0.9273
vn 0.0000 0.0000 1.0000
vn -0.3827 0.0000 0.9239
vn -0.5083 0.6952 0.5083
vn -0.6557 0.3743 0.6557
vn -0.7071 0.0000 0.7071
vn -0.6557 -0.3743 0.6557
vn -0.5083 -0.6952 0.5083
vn -0.2850 -0.9152 0.2850
vn -0.2850 0.9152 0.2850
vn -0.3724 0.9152 0.1542
vn -0.6641 0.6952 0.2751
vn -0.8567 0.3743 0.3548
vn -0.9239 0.0000 0.3827
vn -0.8567 -0.3743 0.3548
vn -0.6641 -0.6952 0.2751
vn -0.3724 -0.9152 0.1542
vn -0.9273 0.3743 0.0000
vn -1.0000 0.0000 0.0000
vn -0.9273 -0.3743 0.0000
vn -0.7188 -0.6952 0.0000
vn -0.4031 -0.9152 0.0000
vn -0.4031 0.9152 0.0000
vn -0.7188 0.6952 0.0000
vn -0.3724 0.9152 -0.1542
vn -0.6641 0.6952 -0.2751
vn -0.8567 0.3743 -0.3548
vn -0.9239 0.0000 -0.3827
vn -0.8567 -0.3743 -0.3548
vn -0.6641 -0.6952 -0.2751
vn -0.3724 -0.9152 -0.1542
vn -0.7071 0.0000 -0.7071
vn -0.6557 -0.3743 -0.6557
vn -0.5083 -0.6952 -0.5083
vn -0.2850 -0.9152 -0.2850
vn -0.2850 0.9152 -0.2850
vn -0.5083 0.6952 -0.5083
vn -0.6557 0.3743 -0.6557
vn -0.1542 0.9152 -0.3724
vn -0.2751 0.6952 -0.6641
vn -0.3548 0.3743 -0.8567
vn -0.3827 0.0000 -0.9239
vn -0.3548 -0.3743 -0.8567
vn -0.2751 -0.6952 -0.6641
vn -0.1542 -0.9152 -0.3724
vn 0.0000 -0.3743 -0.9273
vn 0.0000 -0.6952 -0.7188
vn 0.0000 -0.9152 -0.4031
vn 0.0000 0.9152 -0.4031
vn 0.0000 0.6952 -0.7188
vn 0.0000 0.3743 -0.9273
vn 0.0000 0.0000 -1.0000
vn 0.1542 0.9152 -0.3724
vn 0.2751 0.6952 -0.6641
vn 0.3548 0.3743 -0.8567
vn 0.3827 0.0000 -0.9239
vn 0.3548 -0.3743 -0.8567
vn 0.2751 -0.6952 -0.6641
vn 0.1542 -0.9152 -0.3724
vn 0.5083 -0.6952 -0.5083
vn 0.2850 -0.9152 -0.2850
vn 0.2850 0.9152 -0.2850
vn 0.5083 0.6952 -0.5083
vn 0.6557 0.3743 -0.6557
vn 0.7071 0.0000 -0.7071
vn 0.6557 -0.3743 -0.6557
vn 0.3724 0.9152 -0.1542
vn 0.6641 0.6952 -0.2751
vn 0.8567 0.3743 -0.3548
vn 0.9239 0.0000 -0.3827
vn 0.8567 -0.3743 -0.3548
vn 0.6641 -0.6952 -0.2751
vn 0.3724 -0.9152 -0.1542
vn 0.4031 -0.9152 0.0000
vn 0.4031 0.9152 0.0000
vn 0.7188 0.6952 0.0000
vn 0.9273 0.3743 0.0000
vn 1.0000 0.0000 0.0000
vn 0.9273 -0.3743 0.0000
vn 0.7188 -0.6952 0.0000
vn 0.6641 0.6952 0.2751
vn 0.8567 0.3743 0.3548
vn 0.9239 0.0000 0.3827
vn 0.8567 -0.3743 0.3548
vn 0.6641 -0.6952 0.2751
vn 0.3724 -0.9152 0.1542
vn 0.3724 0.9152 0.1542
vn 0.2850 0.9152 0.2850
vn 0.5083 0.6952 0.5083
vn 0.6557 0.3743 0.6557
vn 0.7071 0.0000 0.7071
vn 0.6557 -0.3743 0.6557
vn 0.5083 -0.6952 0.5083
vn 0.2850 -0.9152 0.2850
vn 0.3548 0.3743 0.8567
vn 0.3827 0.0000 0.9239
vn 0.3548 -0.3743 0.8567
vn 0.2751 -0.6952 0.6641
vn 0.1542 -0.9152 0.3724
vn 0.1542 0.9152 0.3724
vn 0.2751 0.6952 0.6641
usemtl None
s 1
f 2/1/1 7/2/2 6/3/3 1/4/4
f 111/5/5 5/6/6 110/7/7
f 114/8/8 11/9/9 4/10/10
f 113/11/11 10/12/12 9/13/13 3/14/14
f 112/15/15 8/16/16 7/2/2 2/1/1
f 1/4/4 6/3/3 5/6/6 111/5/5
f 4/10/10 11/9/9 10/12/12 113/11/11
f 3/14/14 9/13/13 8/16/16 112/15/15
f 10/12/12 17/17/17 16/18/18 9/13/13
f 8/16/16 15/19/19 14/20/20 7/2/2
f 6/3/3 13/21/21 12/22/22 5/6/6
f 11/9/9 18/23/23 17/17/17 10/12/12
f 9/13/13 16/18/18 15/19/19 8/16/16
f 7/2/2 14/20/20 13/21/21 6/3/3
f 5/6/6 12/22/22 110/24/7
f 114/25/8 18/23/23 11/9/9
f 18/23/23 25/26/24 24/27/25 17/17/17
f 16/18/18 23/28/26 22/29/27 15/19/19
f 14/20/20 21/30/28 20/31/29 13/21/21
f 12/22/22 19/32/30 110/33/7
f 114/34/8 25/26/24 18/23/23
f 17/17/17 24/27/25 23/28/26 16/18/18
f 15/19/19 22/29/27 21/30/28 14/20/20
f 13/21/21 20/31/29 19/32/30 12/22/22
f 23/28/26 30/35/31 29/36/32 22/29/27
f 21/30/28 28/37/33 27/38/34 20/31/29
f 19/32/30 26/39/35 110/40/7
f 114/41/8 32/42/36 25/26/24
f 24/27/25 31/43/37 30/35/31 23/28/26
f 22/29/27 29/36/32 28/37/33 21/30/28
f 20/31/29 27/38/34 26/39/35 19/32/30
f 25/26/24 32/42/36 31/43/37 24/27/25
f 114/44/8 39/45/38 32/42/36
f 31/43/37 38/46/39 37/47/40 30/35/31
f 29/36/32 36/48/41 35/49/42 28/37/33
f 27/38/34 34/50/43 33/51/44 26/39/35
f 32/42/36 39/45/38 38/46/39 31/43/37
f 30/35/31 37/47/40 36/48/41 29/36/32
f 28/37/33 35/49/42 34/50/43 27/38/34
f 26/39/35 33/51/44 110/52/7
f 36/48/41 43/53/45 42/54/46 35/49/42
f 34/50/43 41/55/47 40/56/48 33/51/44
f 39/45/38 46/57/49 45/58/50 38/46/39
f 37/47/40 44/59/51 43/53/45 36/48/41
f 35/49/42 42/54/46 41/55/47 34/50/43
f 33/51/44 40/56/48 110/60/7
f 114/61/8 46/57/49 39/45/38
f 38/46/39 45/58/50 44/59/51 37/47/40
f 46/57/49 53/62/52 52/63/53 45/58/50
f 44/59/51 51/64/54 50/65/55 43/53/45
f 42/54/46 49/66/56 48/67/57 41/55/47
f 40/56/48 47/68/58 110/69/7
f 114/70/8 53/62/52 46/57/49
f 45/58/50 52/63/53 51/64/54 44/59/51
f 43/53/45 50/65/55 49/66/56 42/54/46
f 41/55/47 48/67/57 47/68/58 40/56/48
f 49/66/56 56/71/59 55/72/60 48/67/57
f 47/68/58 54/73/61 110/74/7
f 114/75/8 60/76/62 53/62/52
f 52/63/53 59/77/63 58/78/64 51/64/54
f 50/65/55 57/79/65 56/71/59 49/66/56
f 48/67/57 55/72/60 54/73/61 47/68/58
f 53/62/52 60/76/62 59/77/63 52/63/53
f 51/64/54 58/78/64 57/79/65 50/65/55
f 114/80/8 67/81/66 60/76/62
f 59/77/63 66/82/67 65/83/68 58/78/64
f 57/79/65 64/84/69 63/85/70 56/71/59
f 55/72/60 62/86/71 61/87/72 54/73/61
f 60/76/62 67/81/66 66/82/67 59/77/63
f 58/78/64 65/83/68 64/84/69 57/79/65
f 56/71/59 63/85/70 62/86/71 55/72/60
f 54/73/61 61/87/72 110/88/7
f 62/86/71 69/89/73 68/90/74 61/87/72
f 67/81/66 74/91/75 73/92/76 66/82/67
f 65/83/68 72/93/77 71/94/78 64/84/69
f 63/85/70 70/95/79 69/89/73 62/86/71
f 61/87/72 68/90/74 110/96/7
f 114/97/8 74/91/75 67/81/66
f 66/82/67 73/92/76 72/93/77 65/83/68
f 64/84/69 71/94/78 70/95/79 63/85/70
f 74/91/75 81/98/80 80/99/81 73/92/76
f 72/93/77 79/100/82 78/101/83 71/94/78
f 70/95/79 77/102/84 76/103/85 69/89/73
f 68/90/74 75/104/86 110/105/7
f 114/106/8 81/98/80 74/91/75
f 73/92/76 80/99/81 79/100/82 72/93/77
f 71/94/78 78/101/83 77/102/84 70/95/79
f 69/89/73 76/103/85 75/104/86 68/90/74
f 75/104/86 82/107/87 110/108/7
f 114/109/8 88/110/88 81/98/80
f 80/99/81 87/111/89 86/112/90 79/100/82
f 78/101/83 85/113/91 84/114/92 77/102/84
f 76/103/85 83/115/93 82/107/87 75/104/86
f 81/98/80 88/110/88 87/111/89 80/99/81
f 79/100/82 86/112/90 85/113/91 78/101/83
f 77/102/84 84/114/92 83/115/93 76/103/85
f 87/116/89 94/117/94 93/118/95 86/119/90
f 85/120/91 92/121/96 91/122/97 84/123/92
f 83/124/93 90/125/98 89/126/99 82/127/87
f 88/128/88 95/129/100 94/117/94 87/116/89
f 86/119/90 93/118/95 92/121/96 85/120/91
f 84/123/92 91/122/97 90/125/98 83/124/93
f 82/127/87 89/126/99 110/130/7
f 114/131/8 95/129/100 88/128/88
f 95/129/100 102/132/101 101/133/102 94/117/94
f 93/118/95 100/134/103 99/135/104 92/121/96
f 91/122/97 98/136/105 97/137/106 90/125/98
f 89/126/99 96/138/107 110/139/7
f 114/140/8 102/132/101 95/129/100
f 94/117/94 101/133/102 100/134/103 93/118/95
f 92/121/96 99/135/104 98/136/105 91/122/97
f 90/125/98 97/137/106 96/138/107 89/126/99
f 100/134/103 107/141/108 106/142/109 99/135/104
f 98/136/105 105/143/110 104/144/111 97/137/106
f 96/138/107 103/145/112 110/146/7
f 114/147/8 109/148/113 102/132/101
f 101/133/102 108/149/114 107/141/108 100/134/103
f 99/135/104 106/142/109 105/143/110 98/136/105
f 97/137/106 104/144/111 103/145/112 96/138/107
f 102/132/101 109/148/113 108/149/114 101/133/102
f 114/150/8 4/10/10 109/148/113
f 108/149/114 113/11/11 3/14/14 107/141/108
f 106/142/109 112/15/15 2/1/1 105/143/110
f 104/144/111 1/4/4 111/5/5 103/145/112
f 109/148/113 4/10/10 113/11/11 108/149/114
f 107/141/108 3/14/14 112/15/15 106/142/109
f 105/143/110 2/1/1 1/4/4 104/144/111
f 103/145/112 111/5/5 110/151/7
